#Comment line ignore any data following # character 
#Hierarchical Translation and Rotation (.htr) file 
[Header]	
#Header keywords are followed by a single value 
FileType HTR		#Single word string
DataType HTRS		#Translation followed by rotation and scale data
FileVersion 1		#integer
NumSegments 64		#integer
NumFrames 3		#integer
DataFrameRate 30		#integer, data frame rate in this file
EulerRotationOrder ZYX
CalibrationUnits mm
RotationUnits Degrees
GlobalAxisofGravity Y
BoneLengthAxis Y
ScaleFactor 1.00
[SegmentNames&Hierarchy]
#CHILD	PARENT
Pinger_Root GLOBAL
Pelvis Pinger_Root
L_Hip Pelvis
R_Hip Pelvis
Rear_Leg01 Pelvis
Spine1 Pelvis
L_Leg01 L_Hip
L_Leg02 L_Leg01
L_Leg03 L_Leg02
L_Foot L_Leg03
L_Toe1_01 L_Foot
L_Toe2_01 L_Foot
L_Toe3_01 L_Foot
planeAlignerLeft L_Foot
L_Toe1_02 L_Toe1_01
L_Toe1_03 L_Toe1_02
L_Toe2_02 L_Toe2_01
L_Toe2_03 L_Toe2_02
L_Toe3_02 L_Toe3_01
L_Toe3_03 L_Toe3_02
planeLockWeightLeft planeAlignerLeft
R_Leg01 R_Hip
R_Leg02 R_Leg01
R_Leg03 R_Leg02
R_Foot R_Leg03
planeAlignerRight R_Foot
R_Toe1_01 R_Foot
R_Toe2_01 R_Foot
R_Toe3_01 R_Foot
planeLockWeightRight planeAlignerRight
R_Toe1_02 R_Toe1_01
R_Toe1_03 R_Toe1_02
R_Toe2_02 R_Toe2_01
R_Toe2_03 R_Toe2_02
R_Toe3_02 R_Toe3_01
R_Toe3_03 R_Toe3_02
Rear_Leg02 Rear_Leg01
Rear_Leg03 Rear_Leg02
Rear_Leg04 Rear_Leg03
Rear_Foot Rear_Leg04
planeAlignerCenter Rear_Foot
Rear_Toe1_01 Rear_Foot
Rear_Toe2_01 Rear_Foot
Rear_Toe3_01 Rear_Foot
planeLockWeightCenter planeAlignerCenter
Rear_Toe1_02 Rear_Toe1_01
Rear_Toe1_03 Rear_Toe1_02
Rear_Toe2_02 Rear_Toe2_01
Rear_Toe2_03 Rear_Toe2_02
Rear_Toe3_02 Rear_Toe3_01
Rear_Toe3_03 Rear_Toe3_02
Back_Bone Spine1
Head Spine1
Motor_Bone Back_Bone
Ping_Mechanism Back_Bone
BN_LookIK Head
bottomMouth Head
L_Mouth01 Head
L_mouthFront Head
mouthGun Head
R_Mouth01 Head
R_mouthFront Head
TopMouth Head
weapon_bone Head
[BasePosition]
#SegmentName Tx, Ty, Tz, Rx, Ry, Rz, BoneLength
Pinger_Root 0.000000 0.000000 0.000000 -90.000000 0.000000 0.000000 10.000000 
Pelvis 0.000000 0.000000 0.000000 0.000000 0.000000 0.000000 10.000000 
L_Hip 0.000000 0.000000 0.000000 0.000000 0.000000 0.000000 10.000000 
R_Hip 0.000000 0.000000 0.000000 0.000000 0.000000 0.000000 10.000000 
Rear_Leg01 0.000000 0.000000 0.000000 0.000000 0.000000 0.000000 10.000000 
Spine1 0.000000 0.000000 0.000000 0.000000 0.000000 0.000000 10.000000 
L_Leg01 0.000000 0.000000 0.000000 0.000000 0.000000 0.000000 10.000000 
L_Leg02 0.000000 0.000000 0.000000 0.000000 0.000000 0.000000 10.000000 
L_Leg03 0.000000 0.000000 0.000000 0.000000 0.000000 0.000000 10.000000 
L_Foot 0.000000 0.000000 0.000000 0.000000 0.000000 0.000000 10.000000 
L_Toe1_01 0.000000 0.000000 0.000000 0.000000 0.000000 0.000000 10.000000 
L_Toe2_01 0.000000 0.000000 0.000000 0.000000 0.000000 0.000000 10.000000 
L_Toe3_01 0.000000 0.000000 0.000000 0.000000 0.000000 0.000000 10.000000 
planeAlignerLeft 0.000000 0.000000 0.000000 0.000000 0.000000 0.000000 10.000000 
L_Toe1_02 0.000000 0.000000 0.000000 0.000000 0.000000 0.000000 10.000000 
L_Toe1_03 0.000000 0.000000 0.000000 0.000000 0.000000 0.000000 10.000000 
L_Toe2_02 0.000000 0.000000 0.000000 0.000000 0.000000 0.000000 10.000000 
L_Toe2_03 0.000000 0.000000 0.000000 0.000000 0.000000 0.000000 10.000000 
L_Toe3_02 0.000000 0.000000 0.000000 0.000000 0.000000 0.000000 10.000000 
L_Toe3_03 0.000000 0.000000 0.000000 0.000000 0.000000 0.000000 10.000000 
planeLockWeightLeft 0.000000 0.000000 0.000000 0.000000 0.000000 0.000000 10.000000 
R_Leg01 0.000000 0.000000 0.000000 0.000000 0.000000 0.000000 10.000000 
R_Leg02 0.000000 0.000000 0.000000 0.000000 0.000000 0.000000 10.000000 
R_Leg03 0.000000 0.000000 0.000000 0.000000 0.000000 0.000000 10.000000 
R_Foot 0.000000 0.000000 0.000000 0.000000 0.000000 0.000000 10.000000 
planeAlignerRight 0.000000 0.000000 0.000000 0.000000 0.000000 0.000000 10.000000 
R_Toe1_01 0.000000 0.000000 0.000000 0.000000 0.000000 0.000000 10.000000 
R_Toe2_01 0.000000 0.000000 0.000000 0.000000 0.000000 0.000000 10.000000 
R_Toe3_01 0.000000 0.000000 0.000000 0.000000 0.000000 0.000000 10.000000 
planeLockWeightRight 0.000000 0.000000 0.000000 0.000000 0.000000 0.000000 10.000000 
R_Toe1_02 0.000000 0.000000 0.000000 0.000000 0.000000 0.000000 10.000000 
R_Toe1_03 0.000000 0.000000 0.000000 0.000000 0.000000 0.000000 10.000000 
R_Toe2_02 0.000000 0.000000 0.000000 0.000000 0.000000 0.000000 10.000000 
R_Toe2_03 0.000000 0.000000 0.000000 0.000000 0.000000 0.000000 10.000000 
R_Toe3_02 0.000000 0.000000 0.000000 0.000000 0.000000 0.000000 10.000000 
R_Toe3_03 0.000000 0.000000 0.000000 0.000000 0.000000 0.000000 10.000000 
Rear_Leg02 0.000000 0.000000 0.000000 0.000000 0.000000 0.000000 10.000000 
Rear_Leg03 0.000000 0.000000 0.000000 0.000000 0.000000 0.000000 10.000000 
Rear_Leg04 0.000000 0.000000 0.000000 0.000000 0.000000 0.000000 10.000000 
Rear_Foot 0.000000 0.000000 0.000000 0.000000 0.000000 0.000000 10.000000 
planeAlignerCenter 0.000000 0.000000 0.000000 0.000000 0.000000 0.000000 10.000000 
Rear_Toe1_01 0.000000 0.000000 0.000000 0.000000 0.000000 0.000000 10.000000 
Rear_Toe2_01 0.000000 0.000000 0.000000 0.000000 0.000000 0.000000 10.000000 
Rear_Toe3_01 0.000000 0.000000 0.000000 0.000000 0.000000 0.000000 10.000000 
planeLockWeightCenter 0.000000 0.000000 0.000000 0.000000 0.000000 0.000000 10.000000 
Rear_Toe1_02 0.000000 0.000000 0.000000 0.000000 0.000000 0.000000 10.000000 
Rear_Toe1_03 0.000000 0.000000 0.000000 0.000000 0.000000 0.000000 10.000000 
Rear_Toe2_02 0.000000 0.000000 0.000000 0.000000 0.000000 0.000000 10.000000 
Rear_Toe2_03 0.000000 0.000000 0.000000 0.000000 0.000000 0.000000 10.000000 
Rear_Toe3_02 0.000000 0.000000 0.000000 0.000000 0.000000 0.000000 10.000000 
Rear_Toe3_03 0.000000 0.000000 0.000000 0.000000 0.000000 0.000000 10.000000 
Back_Bone 0.000000 0.000000 0.000000 0.000000 0.000000 0.000000 10.000000 
Head 0.000000 0.000000 0.000000 0.000000 0.000000 0.000000 10.000000 
Motor_Bone 0.000000 0.000000 0.000000 0.000000 0.000000 0.000000 10.000000 
Ping_Mechanism 0.000000 0.000000 0.000000 0.000000 0.000000 0.000000 10.000000 
BN_LookIK 0.000000 0.000000 0.000000 0.000000 0.000000 0.000000 10.000000 
bottomMouth 0.000000 0.000000 0.000000 0.000000 0.000000 0.000000 10.000000 
L_Mouth01 0.000000 0.000000 0.000000 0.000000 0.000000 0.000000 10.000000 
L_mouthFront 0.000000 0.000000 0.000000 0.000000 0.000000 0.000000 10.000000 
mouthGun 0.000000 0.000000 0.000000 0.000000 0.000000 0.000000 10.000000 
R_Mouth01 0.000000 0.000000 0.000000 0.000000 0.000000 0.000000 10.000000 
R_mouthFront 0.000000 0.000000 0.000000 0.000000 0.000000 0.000000 10.000000 
TopMouth 0.000000 0.000000 0.000000 0.000000 0.000000 0.000000 10.000000 
weapon_bone 0.000000 0.000000 0.000000 0.000000 0.000000 0.000000 10.000000 
#Beginning of Data. Separated by tabs
#Fr	Tx	Ty	Tz	Rx	Ry	Rz	SF
[Pinger_Root]
16 1333.819580 0.000117 0.000000 -0.000075 -0.000000 -0.000020 1333.819580
17 1426.472412 0.000126 0.000000 -0.000075 -0.000000 -0.000020 1426.472412
18 1517.609985 0.000134 0.000000 -0.000075 -0.000000 -0.000020 1517.609985
[Pelvis]
16 427.037415 1057.320435 4581.821777 33.766487 -73.603195 -72.898262 4721.586426
17 410.241333 1090.192505 4593.757813 33.475498 -73.062881 -70.283989 4739.137695
18 394.341888 1118.271851 4622.520996 33.275532 -72.519096 -67.756409 4772.183594
[L_Hip]
16 5.766392 125.831482 872.656799 -178.253296 -81.787666 87.381149 881.701050
17 5.766392 125.831482 872.656799 -178.253342 -81.787758 87.381340 881.701050
18 5.766392 125.831482 872.656799 -178.253311 -81.787712 87.381248 881.701050
[R_Hip]
16 5.765438 125.836372 -872.654907 -1.746701 81.787666 87.381149 881.699829
17 5.765438 125.836372 -872.654907 -1.746678 81.787712 87.381248 881.699829
18 5.765438 125.836372 -872.654907 -1.746713 81.787666 87.381149 881.699829
[Rear_Leg01]
16 -192.298416 -925.602966 -0.001907 136.407471 2.267178 -177.200012 945.367432
17 -192.298416 -925.602966 -0.001907 138.079987 4.787244 -172.200211 945.367432
18 -192.298416 -925.602966 -0.001907 140.707779 7.356473 -167.021301 945.367432
[Spine1]
16 290.604584 5.007505 0.000477 21.499994 -15.538029 38.129837 290.647736
17 290.604584 5.007505 0.000477 19.346111 -14.381594 38.094223 290.647736
18 290.604584 5.007505 0.000477 17.201141 -13.226728 38.014107 290.647736
[L_Leg01]
16 761.932007 -0.002384 -0.069261 74.699188 -31.338387 -89.827133 761.932068
17 761.932007 -0.002384 -0.069261 76.253403 -30.227228 -91.355560 761.932068
18 761.932007 -0.002384 -0.069261 77.888824 -28.351145 -92.838852 761.932068
[L_Leg02]
16 1441.140503 -0.000954 -0.000715 -0.570180 0.294281 -121.572372 1441.140503
17 1441.140503 -0.000954 -0.000715 -0.671356 0.327323 -120.167976 1441.140503
18 1441.140503 -0.000954 -0.000715 -0.829877 0.371328 -117.614166 1441.140503
[L_Leg03]
16 1686.963989 -0.000715 -0.000954 0.043659 -0.010315 98.637711 1686.963989
17 1686.963989 -0.000715 -0.000954 0.041301 -0.010280 99.025162 1686.963989
18 1686.963989 -0.000715 -0.000954 0.038943 -0.010228 99.412605 1686.963989
[L_Foot]
16 3041.570068 -30.715107 11.297464 -6.140105 14.667667 69.831314 3041.746094
17 3041.570068 -30.715107 11.297464 -6.604104 13.571632 69.083458 3041.746094
18 3041.570068 -30.715107 11.297464 -7.051359 12.469852 68.348000 3041.746094
[L_Toe1_01]
16 -188.216690 -224.732346 -21.137953 89.146729 -1.778566 -156.977676 293.899567
17 -188.216690 -224.732346 -21.137953 89.096230 -1.752562 -155.444824 293.899567
18 -188.216690 -224.732346 -21.137953 89.046432 -1.725200 -153.911163 293.899567
[L_Toe2_01]
16 200.746536 -219.926590 148.838394 -76.549660 -12.610160 -49.849815 332.896027
17 200.746536 -219.926590 148.838394 -76.272987 -12.327678 -51.180748 332.896027
18 200.746536 -219.926590 148.838394 -76.003311 -12.038884 -52.509392 332.896027
[L_Toe3_01]
16 188.832520 -219.859131 -191.078659 -107.474121 15.623259 -51.780731 347.140900
17 188.832520 -219.859131 -191.078659 -107.816093 15.255032 -53.117455 347.140900
18 188.832520 -219.859131 -191.078659 -108.148628 14.879072 -54.450096 347.140900
[planeAlignerLeft]
16 -63.661709 -685.858704 0.015462 0.000000 -89.951546 -90.041489 688.806946
17 -65.986130 -702.550171 0.012614 0.000000 -89.951546 -90.044144 705.642212
18 -68.310555 -719.241699 0.009766 0.000000 -89.951546 -90.046806 722.478333
[L_Toe1_02]
16 413.761139 0.000477 0.000000 0.001391 -25.055492 0.001391 413.761139
17 413.761139 0.000477 0.000000 0.001390 -25.275837 0.001390 413.761139
18 413.761139 0.000477 0.000000 0.001388 -25.496170 0.001388 413.761139
[L_Toe1_03]
16 464.317322 0.000358 -0.000089 0.005657 66.053345 0.005657 464.317322
17 464.317322 0.000358 -0.000089 0.005154 63.664482 0.005154 464.317322
18 464.317322 0.000358 -0.000089 0.004733 61.274578 0.004733 464.317322
[L_Toe2_02]
16 342.235809 -0.000477 0.000238 0.001180 -77.951027 0.001180 342.235809
17 342.235809 -0.000477 0.000238 0.001181 -77.550011 0.001181 342.235809
18 342.235809 -0.000477 0.000238 0.001181 -77.148933 0.001181 342.235809
[L_Toe2_03]
16 420.210846 -0.000715 0.000000 -179.996902 76.416924 -179.993378 420.210846
17 420.210846 -0.000715 0.000000 -179.996338 77.838173 -179.992828 420.210846
18 420.210846 -0.000715 0.000000 -179.995621 79.259125 -179.992111 420.210846
[L_Toe3_02]
16 329.270111 0.000954 0.000000 0.001177 -81.374176 0.001177 329.270111
17 329.270111 0.000954 0.000000 0.001177 -81.168777 0.001177 329.270111
18 329.270111 0.000954 0.000000 0.001177 -80.797577 0.001177 329.270111
[L_Toe3_03]
16 439.137451 -0.001907 0.000954 -179.997482 74.605217 -179.993942 439.137451
17 439.137451 -0.001907 0.000954 -179.997070 75.943985 -179.993546 439.137451
18 439.137451 -0.001907 0.000954 -179.996582 77.282524 -179.993057 439.137451
[planeLockWeightLeft]
16 1000.000244 0.000023 -0.000189 -0.011826 -0.004376 0.005620 1000.000244
17 1000.000244 0.000035 -0.000198 -0.011826 -0.004376 0.005620 1000.000244
18 1000.000244 0.000047 -0.000207 -0.011826 -0.004376 0.005620 1000.000244
[R_Leg01]
16 761.455627 -0.001907 -0.000358 78.346046 2.531477 89.617134 761.455688
17 761.455627 -0.001907 -0.000358 73.836266 -8.288403 91.331306 761.455688
18 761.455627 -0.001907 -0.000358 68.306244 -16.747959 92.995445 761.455688
[R_Leg02]
16 1441.140625 0.000000 -0.000238 -0.826608 -0.180743 -140.134109 1441.140625
17 1441.140625 0.000000 -0.000238 -1.023743 -0.275052 -151.203842 1441.140625
18 1441.140625 0.000000 -0.000238 -1.132134 -0.326473 -157.533798 1441.140625
[R_Leg03]
16 1686.963989 0.000954 0.001431 0.069844 -0.040043 129.643539 1686.963989
17 1686.963989 0.000954 0.001431 0.075777 -0.043557 131.364410 1686.963989
18 1686.963989 0.000954 0.001431 0.080003 -0.042059 132.133926 1686.963989
[R_Foot]
16 3041.560059 -30.531288 -11.204481 1.353346 -35.812054 73.039894 3041.734131
17 3041.560059 -30.531288 -11.204481 -1.108261 -37.997257 76.163177 3041.734131
18 3041.560059 -30.531288 -11.204481 -2.939260 -39.980415 77.985710 3041.734131
[planeAlignerRight]
16 -258.666656 -758.810120 64.637741 0.000000 -89.951546 -90.033577 804.288025
17 -258.470703 -760.622437 60.905216 0.000000 -89.937447 -90.035477 805.644531
18 -254.254333 -763.882874 55.474056 0.000000 -89.937447 -90.037376 806.994263
[R_Toe1_01]
16 -188.383347 -224.864899 21.052242 91.271973 1.713417 -142.671890 294.101532
17 -188.383347 -224.864899 21.052242 91.456009 0.805967 -142.870972 294.101532
18 -188.383347 -224.864899 21.052242 91.599968 0.135996 -143.554108 294.101532
[R_Toe2_01]
16 200.637817 -220.002121 -148.787384 -106.748177 6.804585 -74.958595 332.857574
17 200.637817 -220.002121 -148.787384 -107.170067 3.905880 -81.147156 332.857574
18 200.637817 -220.002121 -148.787384 -107.140671 2.276250 -81.426872 332.857574
[R_Toe3_01]
16 188.606735 -220.092957 191.126343 -67.562759 -17.111431 -76.638290 347.192566
17 188.606735 -220.092957 191.126343 -66.911369 -14.175107 -83.702812 347.192566
18 188.606735 -220.092957 191.126343 -66.638245 -14.597588 -86.535690 347.192566
[planeLockWeightRight]
16 -0.000109 -0.000044 -0.000033 -0.011823 -0.004379 -0.000027 0.000122
17 -0.000087 -0.000065 -0.000030 -0.011823 -0.004379 -0.000027 0.000113
18 -0.000065 -0.000087 -0.000027 -0.011823 -0.004379 -0.000027 0.000112
[R_Toe1_02]
16 413.762085 0.000477 -0.000119 0.001419 -21.554878 0.001419 413.762085
17 413.762085 0.000477 -0.000119 0.001422 -21.270569 0.001422 413.762085
18 413.762085 0.000477 -0.000119 0.001424 -20.986252 0.001424 413.762085
[R_Toe1_03]
16 464.317810 0.000000 0.001088 -0.014176 84.697845 -0.010676 464.317810
17 464.317810 0.000000 0.001088 -0.020629 86.510971 -0.017131 464.317810
18 464.317810 0.000000 0.001088 -0.022942 86.891838 -0.019444 464.317810
[R_Toe2_02]
16 342.234741 -0.000954 0.000238 -0.019684 -80.928123 0.012472 342.234741
17 342.234741 -0.000954 0.000238 -0.017515 -80.928123 0.010622 342.234741
18 342.234741 -0.000954 0.000238 -0.015346 -80.928123 0.008772 342.234741
[R_Toe2_03]
16 420.210846 0.000715 -0.000268 -179.996582 46.220886 179.999664 420.210846
17 420.210846 0.000715 -0.000268 -179.996475 49.875969 179.999817 420.210846
18 420.210846 0.000715 -0.000268 -179.996475 49.701519 179.999802 420.210846
[R_Toe3_02]
16 329.270355 -0.000477 -0.000954 0.001175 -84.486977 0.001175 329.270355
17 329.270355 -0.000477 -0.000954 0.001175 -84.491776 0.001175 329.270355
18 329.270355 -0.000477 -0.000954 0.001175 -84.496582 0.001175 329.270355
[R_Toe3_03]
16 439.137939 0.000238 0.001431 -179.996933 49.946899 -179.989502 439.137939
17 439.137939 0.000238 0.001431 -179.996567 51.968506 -179.989182 439.137939
18 439.137939 0.000238 0.001431 -179.996674 51.435421 -179.989258 439.137939
[Rear_Leg02]
16 1162.777710 -0.029802 0.005960 -14.131071 5.171995 171.248718 1162.777710
17 1162.777710 -0.029802 0.005960 -10.303716 3.477537 176.261246 1162.777710
18 1162.777710 -0.029802 0.005960 -6.111858 2.039351 -176.300552 1162.777710
[Rear_Leg03]
16 607.192505 -0.013351 -0.073195 0.009914 -0.006154 80.019005 607.192505
17 607.192505 -0.013351 -0.073195 0.009910 -0.006160 80.087944 607.192505
18 607.192505 -0.013351 -0.073195 0.009906 -0.006166 80.156868 607.192505
[Rear_Leg04]
16 995.874512 -0.020504 -0.011921 -0.044773 -0.012653 102.597054 995.874573
17 995.874512 -0.020504 -0.011921 -0.044904 -0.012179 103.808701 995.874573
18 995.874512 -0.020504 -0.011921 -0.041898 -0.015953 104.128860 995.874573
[Rear_Foot]
16 3096.176270 -0.067472 -0.041425 88.211365 75.618019 -98.244804 3096.176270
17 3096.176270 -0.067472 -0.041425 106.002815 79.117645 -81.612961 3096.176270
18 3096.176270 -0.067472 -0.041425 134.558792 81.230881 -55.489750 3096.176270
[planeAlignerCenter]
16 -7.392181 -19.482199 -671.409180 0.001958 -0.001295 156.964752 671.732422
17 -23.332991 -53.663490 -682.450439 0.001972 -0.001273 155.701492 684.954590
18 -30.059959 -67.172836 -695.309937 0.001977 -0.001266 155.261185 699.193604
[Rear_Toe1_01]
16 0.653352 83.966492 -371.173737 -0.645144 16.407358 65.100723 380.553192
17 0.653352 83.966492 -371.173737 -0.743807 16.262970 63.692348 380.553192
18 0.653352 83.966492 -371.173737 -0.798556 16.870586 63.188450 380.553192
[Rear_Toe2_01]
16 178.200760 -294.826019 -362.060547 -3.832577 43.863323 -104.263161 499.765686
17 178.200760 -294.826019 -362.060547 -4.092975 43.417534 -106.300240 499.765686
18 178.200760 -294.826019 -362.060547 -4.254590 43.396908 -107.030853 499.765686
[Rear_Toe3_01]
16 -153.359680 -308.780914 -362.060852 -4.126688 44.359802 -143.036835 499.952881
17 -153.359680 -308.780914 -362.060852 -3.772788 44.565414 -143.519836 499.952881
18 -153.359680 -308.780914 -362.060852 -3.702415 44.930580 -143.674484 499.952881
[planeLockWeightCenter]
16 1000.000488 0.000496 -0.000139 -0.011814 -0.004373 -0.000015 1000.000488
17 1000.000488 0.000496 -0.000136 -0.011814 -0.004373 -0.000015 1000.000488
18 1000.000488 0.000496 -0.000133 -0.011814 -0.004373 -0.000015 1000.000488
[Rear_Toe1_02]
16 379.707825 0.194073 0.000477 -0.002647 -32.698936 -0.002647 379.707855
17 379.707825 0.194073 0.000477 -0.002655 -32.124252 -0.002655 379.707855
18 379.707825 0.194073 0.000477 -0.006656 -31.949297 -0.006656 379.707855
[Rear_Toe1_03]
16 500.129700 0.165701 0.000119 -179.927353 89.070854 -179.930847 500.129761
17 500.129700 0.165701 0.000119 -179.986725 84.283546 -179.990219 500.129761
18 500.129700 0.165701 0.000119 -179.988861 82.983002 -179.992355 500.129761
[Rear_Toe2_02]
16 340.494507 0.000238 -0.000954 0.001187 -73.464233 0.001187 340.494507
17 340.494507 0.000238 -0.000954 0.001196 -67.667198 0.001196 340.494507
18 340.494507 0.000238 -0.000954 0.001203 -64.574936 0.001203 340.494507
[Rear_Toe2_03]
16 433.103577 0.000000 0.000238 0.009261 75.439041 0.009261 433.103546
17 433.103577 0.000000 0.000238 0.005772 66.537727 0.005772 433.103546
18 433.103577 0.000000 0.000238 0.004880 62.166817 0.004880 433.103546
[Rear_Toe3_02]
16 340.494141 -0.000358 -0.000477 0.001181 -77.899452 0.001181 340.494171
17 340.494141 -0.000358 -0.000477 0.001186 -73.675873 0.001186 340.494171
18 340.494141 -0.000358 -0.000477 0.001189 -71.406174 0.001189 340.494171
[Rear_Toe3_03]
16 433.103577 0.001431 -0.000238 -0.011568 83.287064 -0.008065 433.103546
17 433.103577 0.001431 -0.000238 0.009581 75.927513 0.009581 433.103546
18 433.103577 0.001431 -0.000238 0.007606 72.246834 0.007606 433.103546
[Back_Bone]
16 1312.175781 -701.934692 0.000954 1.302103 -3.661989 -83.755753 1488.125488
17 1312.175781 -701.934692 0.000954 1.795295 -3.651017 -86.244919 1488.125488
18 1312.175781 -701.934692 0.000954 2.121208 -3.650540 -87.370285 1488.125488
[Head]
16 1406.159424 809.709290 0.001431 6.195388 -9.518032 3.260890 1622.625488
17 1406.159424 809.709290 0.001431 6.125335 -10.116006 3.815591 1622.625488
18 1406.159424 809.709290 0.001431 6.043011 -10.632936 3.730492 1622.625488
[Motor_Bone]
16 1158.364380 -417.834747 0.000477 0.001261 -0.033986 -106.021004 1231.419434
17 1158.364380 -417.834747 0.000477 2.853720 -2.893725 -108.876030 1231.419434
18 1158.364380 -417.834747 0.000477 5.387601 -1.836368 -107.820084 1231.419434
[Ping_Mechanism]
16 1160.252075 -389.743866 42.564713 0.000103 -0.000053 82.120995 1224.702881
17 1158.144653 -391.970947 47.583931 0.000103 -0.000053 82.120995 1223.603027
18 1156.037109 -394.197998 52.603161 0.000103 -0.000053 82.120995 1222.530518
[BN_LookIK]
16 193.241119 1380.371704 -0.002861 0.000000 89.965736 -31.038179 1393.832153
17 193.241119 1380.371704 -0.002861 0.000000 89.965736 -31.038179 1393.832153
18 193.241119 1380.371704 -0.002861 0.000000 89.965736 -31.038179 1393.832153
[bottomMouth]
16 -435.092926 615.759399 -0.000954 -0.000022 0.000016 73.527184 753.966492
17 -435.092926 615.759399 -0.000954 -0.000022 0.000016 73.527184 753.966492
18 -435.092926 615.759399 -0.000954 -0.000022 0.000016 73.527184 753.966492
[L_Mouth01]
16 554.440979 7.658243 838.222046 150.204178 23.759130 109.605339 1005.027161
17 554.440979 7.658243 838.222046 150.204178 23.759130 109.605339 1005.027161
18 554.440979 7.658243 838.222046 150.204178 23.759130 109.605339 1005.027161
[L_mouthFront]
16 551.629089 934.514771 339.150421 0.000081 2.804060 79.119301 1136.941284
17 551.629089 934.514771 339.150421 0.000081 2.804060 79.119301 1136.941284
18 551.629089 934.514771 339.150421 0.000081 2.804060 79.119301 1136.941284
[mouthGun]
16 55.332661 1627.420898 0.000000 0.000023 0.000009 -11.038128 1628.361328
17 55.332661 1627.420898 0.000000 0.000023 0.000009 -11.038128 1628.361328
18 55.332661 1627.420898 0.000000 0.000023 0.000009 -11.038128 1628.361328
[R_Mouth01]
16 554.442383 7.659197 -838.223938 29.795891 -23.759109 109.605331 1005.029541
17 554.442383 7.659197 -838.223938 29.795891 -23.759109 109.605331 1005.029541
18 554.442383 7.659197 -838.223938 29.795891 -23.759109 109.605331 1005.029541
[R_mouthFront]
16 551.629089 934.514282 -339.151367 0.000029 -2.803930 79.119133 1136.941162
17 551.629089 934.514282 -339.151367 0.000029 -2.803930 79.119133 1136.941162
18 551.629089 934.514282 -339.151367 0.000029 -2.803930 79.119133 1136.941162
[TopMouth]
16 461.269867 -56.106091 -0.008583 -0.000059 -0.000268 92.025169 464.669525
17 461.269867 -56.106091 -0.008583 -0.000059 -0.000268 92.025169 464.669525
18 461.269867 -56.106091 -0.008583 -0.000059 -0.000268 92.025169 464.669525
[weapon_bone]
16 -987.239868 1448.372803 0.001431 0.000000 89.965736 -31.038221 1752.833740
17 -987.239868 1448.372803 0.001431 0.000000 89.965736 -31.038221 1752.833740
18 -987.239868 1448.372803 0.001431 0.000000 89.965736 -31.038221 1752.833740
